<svg xmlns="http://www.w3.org/2000/svg" width="334" height="80" viewBox="0 0 334 80" role="img" aria-label="modal-jobs">
  <rect x="1" y="1" width="78" height="78" rx="16" fill="#181818" stroke="#3b3b3b" stroke-width="2"/>
  <circle cx="17" cy="22" r="5" fill="#4fbf2e"/>
  <rect x="28" y="19" width="44" height="6" rx="3" fill="#e6edf3"/>
  <circle cx="17" cy="40" r="5" fill="#d176bd"/>
  <rect x="28" y="37" width="32" height="6" rx="3" fill="#e6edf3"/>
  <circle cx="17" cy="58" r="5" fill="#dc3636"/>
  <rect x="28" y="55" width="38" height="6" rx="3" fill="#e6edf3"/>
  <path fill="#e6edf3" d="M101 56V32H106.2L106.4 37.8H106Q106.5 35.6 107.6 34.3Q108.7 32.9 110.1 32.2Q111.6 31.6 113.2 31.6Q115.8 31.6 117.4 33.2Q119 34.9 119.7 38H119Q119.5 35.9 120.7 34.5Q121.9 33 123.5 32.3Q125.2 31.6 127 31.6Q129.2 31.6 130.9 32.5Q132.6 33.5 133.6 35.3Q134.7 37.1 134.7 39.8V56H129.1V40.7Q129.1 38.4 127.8 37.4Q126.6 36.4 124.9 36.4Q123.6 36.4 122.6 36.9Q121.6 37.5 121.1 38.5Q120.5 39.6 120.5 40.9V56H115.1V40.4Q115.1 38.6 113.9 37.5Q112.8 36.4 111 36.4Q109.8 36.4 108.8 36.9Q107.8 37.5 107.2 38.6Q106.6 39.7 106.6 41.3V56ZM150.1 56.5Q146.6 56.5 144 54.9Q141.5 53.4 140.1 50.6Q138.6 47.8 138.6 44.1Q138.6 40.4 140.1 37.6Q141.5 34.8 144 33.2Q146.6 31.7 150.1 31.7Q153.6 31.7 156.2 33.2Q158.8 34.8 160.2 37.6Q161.6 40.4 161.6 44.1Q161.6 47.8 160.2 50.6Q158.8 53.4 156.2 54.9Q153.6 56.5 150.1 56.5ZM150.1 52Q152.1 52 153.4 50.9Q154.7 49.9 155.3 48.1Q155.9 46.3 155.9 44.1Q155.9 41.9 155.3 40.1Q154.7 38.3 153.4 37.3Q152.1 36.2 150.1 36.2Q148.2 36.2 146.9 37.3Q145.6 38.3 145 40.1Q144.3 41.9 144.3 44.1Q144.3 46.3 145 48.1Q145.6 49.9 146.9 50.9Q148.2 52 150.1 52ZM174.5 56.4Q171.6 56.4 169.4 55Q167.1 53.5 165.8 50.8Q164.6 48 164.6 44Q164.6 40 165.9 37.3Q167.2 34.5 169.4 33.1Q171.7 31.7 174.4 31.7Q176.6 31.7 178 32.4Q179.3 33.1 180.1 34.1Q180.9 35.1 181.3 36H181.6V24H187.2V56H181.7V52.2H181.3Q180.9 53.1 180.1 54Q179.3 55 177.9 55.7Q176.5 56.4 174.5 56.4ZM176 51.8Q177.8 51.8 179.1 50.9Q180.4 49.9 181 48.1Q181.7 46.4 181.7 44Q181.7 41.7 181 39.9Q180.4 38.2 179.1 37.2Q177.8 36.3 176 36.3Q174.1 36.3 172.8 37.3Q171.6 38.3 170.9 40Q170.3 41.8 170.3 44Q170.3 46.2 170.9 48Q171.6 49.8 172.8 50.8Q174.1 51.8 176 51.8ZM198.9 56.5Q196.6 56.5 194.8 55.7Q193 54.8 191.9 53.2Q190.9 51.6 190.9 49.3Q190.9 47.2 191.6 45.9Q192.4 44.5 193.7 43.8Q195 43 196.6 42.6Q198.2 42.1 200 42Q202.1 41.7 203.4 41.6Q204.7 41.4 205.3 41Q205.9 40.6 205.9 39.8V39.7Q205.9 38.5 205.5 37.7Q205 36.9 204.1 36.4Q203.1 36 201.8 36Q200.4 36 199.3 36.4Q198.3 36.8 197.7 37.5Q197 38.2 196.7 39L191.5 38Q192.3 35.8 193.7 34.4Q195.2 33.1 197.3 32.4Q199.3 31.7 201.7 31.7Q203.4 31.7 205.2 32.1Q206.9 32.5 208.3 33.4Q209.8 34.4 210.6 36Q211.5 37.5 211.5 40V56H206.2V52.7H206Q205.4 53.7 204.5 54.6Q203.6 55.4 202.2 56Q200.8 56.5 198.9 56.5ZM200.3 52.3Q202.1 52.3 203.3 51.7Q204.6 51 205.3 49.8Q206 48.7 206 47.4V44.5Q205.7 44.8 205 45Q204.4 45.2 203.6 45.3Q202.8 45.5 202 45.6Q201.2 45.7 200.7 45.7Q199.4 45.9 198.4 46.3Q197.4 46.7 196.8 47.4Q196.3 48.1 196.3 49.2Q196.3 50.2 196.8 50.9Q197.3 51.6 198.2 52Q199.2 52.3 200.3 52.3ZM222.2 24V56H216.6V24ZM241.7 40.4V45H227.3V40.4ZM246.8 32H252.4V57.4Q252.4 60 251.4 61.7Q250.4 63.3 248.6 64.2Q246.7 65 244.1 65H242.9V60.4H243.8Q245.4 60.4 246.1 59.6Q246.8 58.8 246.8 57.3ZM249.6 28.6Q248.2 28.6 247.3 27.7Q246.3 26.8 246.3 25.5Q246.3 24.2 247.3 23.4Q248.2 22.5 249.6 22.5Q250.9 22.5 251.9 23.4Q252.8 24.2 252.8 25.5Q252.8 26.8 251.9 27.7Q250.9 28.6 249.6 28.6ZM267.9 56.5Q264.4 56.5 261.8 54.9Q259.2 53.4 257.8 50.6Q256.4 47.8 256.4 44.1Q256.4 40.4 257.8 37.6Q259.2 34.8 261.8 33.2Q264.4 31.7 267.9 31.7Q271.4 31.7 274 33.2Q276.5 34.8 277.9 37.6Q279.4 40.4 279.4 44.1Q279.4 47.8 277.9 50.6Q276.5 53.4 274 54.9Q271.4 56.5 267.9 56.5ZM267.9 52Q269.8 52 271.1 50.9Q272.4 49.9 273 48.1Q273.7 46.3 273.7 44.1Q273.7 41.9 273 40.1Q272.4 38.3 271.1 37.3Q269.8 36.2 267.9 36.2Q265.9 36.2 264.6 37.3Q263.3 38.3 262.7 40.1Q262.1 41.9 262.1 44.1Q262.1 46.3 262.7 48.1Q263.3 49.9 264.6 50.9Q265.9 52 267.9 52ZM296 56.4Q294 56.4 292.6 55.7Q291.2 55 290.4 54Q289.6 53.1 289.2 52.2H288.8V56H283.4V24H288.9V36H289.2Q289.6 35.1 290.4 34.1Q291.2 33.1 292.6 32.4Q293.9 31.7 296 31.7Q298.8 31.7 301.1 33.1Q303.3 34.5 304.6 37.3Q306 40 306 44Q306 48 304.7 50.8Q303.4 53.5 301.1 55Q298.9 56.4 296 56.4ZM294.5 51.8Q296.4 51.8 297.7 50.8Q298.9 49.8 299.6 48Q300.2 46.2 300.2 44Q300.2 41.8 299.6 40Q299 38.3 297.7 37.3Q296.4 36.3 294.5 36.3Q292.7 36.3 291.4 37.2Q290.1 38.2 289.5 39.9Q288.8 41.7 288.8 44Q288.8 46.4 289.5 48.1Q290.1 49.9 291.4 50.9Q292.7 51.8 294.5 51.8ZM319 56.5Q316.2 56.5 314.1 55.7Q312 54.9 310.6 53.4Q309.3 51.9 308.9 49.7L314.1 48.7Q314.6 50.5 315.8 51.3Q317.1 52.2 319.1 52.2Q321.2 52.2 322.4 51.4Q323.6 50.6 323.6 49.3Q323.6 48.3 322.8 47.6Q322 47 320.4 46.6L316.3 45.7Q312.9 45 311.2 43.3Q309.5 41.6 309.5 39Q309.5 36.8 310.7 35.1Q312 33.5 314.2 32.6Q316.3 31.7 319.2 31.7Q321.9 31.7 323.9 32.5Q325.9 33.2 327.1 34.6Q328.3 36 328.8 37.9L323.8 38.9Q323.4 37.6 322.3 36.7Q321.2 35.8 319.3 35.8Q317.5 35.8 316.3 36.6Q315.1 37.4 315.1 38.6Q315.1 39.7 315.9 40.4Q316.7 41.1 318.5 41.5L322.6 42.3Q326 43 327.7 44.7Q329.3 46.3 329.3 48.8Q329.3 51.1 328 52.8Q326.7 54.5 324.4 55.5Q322 56.5 319 56.5Z"/>
</svg>
